<svg width="226" height="226" viewBox="0 0 226 226" fill="none" xmlns="http://www.w3.org/2000/svg">
<path d="M110.89 27.2707C63.5804 27.2707 25.0098 65.8414 25.0098 113.151C25.0098 160.611 63.5804 199.031 110.89 199.031C158.35 199.031 196.77 160.46 196.77 113.151C196.92 65.8414 158.35 27.2707 110.89 27.2707Z" fill="white"/>
<path d="M205.207 82.5654C201.742 72.1694 204.906 58.1574 198.578 49.5694C192.25 40.8307 177.937 39.4747 169.198 33.1467C160.459 26.8187 154.885 13.7107 144.489 10.2454C134.394 6.93072 122.19 14.3134 111.041 14.3134C99.8914 14.3134 87.6874 7.08139 77.5928 10.2454C67.0461 13.5601 61.4714 26.6681 52.7328 33.1467C43.9941 39.4747 29.6808 40.8307 23.3528 49.5694C17.0248 58.3081 20.1888 72.1694 16.7234 82.5654C13.4088 92.6601 2.71143 102.001 2.71143 113.151C2.71143 124.3 13.5594 133.641 16.7234 143.736C20.1888 154.132 17.0248 168.144 23.3528 176.732C29.6808 185.471 43.9941 186.827 52.7328 193.155C61.4714 199.483 67.0461 212.741 77.4421 216.056C87.5368 219.371 99.7408 212.139 110.89 212.139C122.039 212.139 134.243 219.371 144.338 216.056C154.734 212.591 160.309 199.483 169.047 193.155C177.786 186.676 192.099 185.471 198.427 176.732C204.755 167.993 201.591 154.132 205.057 143.736C208.371 133.641 219.219 124.3 219.219 113.151C219.37 102.001 208.522 92.6601 205.207 82.5654ZM110.89 202.195C61.7728 202.195 21.9968 162.268 21.9968 113.301C21.9968 64.1841 61.9234 24.4081 110.89 24.4081C160.007 24.4081 199.783 64.3347 199.783 113.301C199.934 162.268 160.007 202.195 110.89 202.195Z" fill="white"/>
<path d="M183.813 113.301C183.813 153.529 151.269 186.073 111.041 186.073C70.813 186.073 38.269 153.529 38.269 113.301C38.269 73.0734 70.813 40.5294 111.041 40.5294C151.118 40.3787 183.813 73.0734 183.813 113.301Z" fill="#6770C1"/>
<path d="M113.15 144.037C123.998 144.037 132.736 139.819 139.667 131.231L153.83 145.695C142.68 158.351 129.422 164.528 114.204 164.528C98.9869 164.528 86.4815 159.707 76.6882 150.215C66.8949 140.572 61.9229 128.519 61.9229 113.904C61.9229 99.2894 66.8949 87.0854 76.9895 77.2921C86.9335 67.4987 99.2882 62.6774 113.752 62.6774C129.874 62.6774 143.434 68.8547 154.432 81.2094L140.722 96.7281C133.791 88.1401 125.052 83.7707 114.807 83.7707C106.52 83.7707 99.4389 86.4827 93.5629 91.9067C87.6869 97.3307 84.6735 104.563 84.6735 113.753C84.6735 122.944 87.3855 130.327 92.9602 135.901C98.5349 141.325 105.164 144.037 113.15 144.037Z" fill="white"/>
</svg>
